<?xml version="1.0" encoding="UTF-8" standalone="no"?>
<!DOCTYPE svg PUBLIC "-//W3C//DTD SVG 1.1//EN" "http://www.w3.org/Graphics/SVG/1.1/DTD/svg11.dtd">
<!-- Created with Vectornator (http://vectornator.io/) -->
<svg height="100%" stroke-miterlimit="10" style="fill-rule:nonzero;clip-rule:evenodd;stroke-linecap:round;stroke-linejoin:round;" version="1.1" viewBox="0 0 2433.03 438.277" width="100%" xml:space="preserve" xmlns="http://www.w3.org/2000/svg" xmlns:vectornator="http://vectornator.io" xmlns:xlink="http://www.w3.org/1999/xlink">
<defs/>
<clipPath id="ArtboardFrame">
<rect height="438.277" width="2433.03" x="0" y="0"/>
</clipPath>
<g clip-path="url(#ArtboardFrame)" id="Untitled" vectornator:layerName="Untitled">
<path d="M1476.88 300.026C1482.65 292.418 1487.97 284.871 1494.33 278.324C1500.86 271.593 1509.01 266.54 1518.66 266.156C1535.68 265.479 1548.91 279.693 1545.72 297.855C1544.18 306.613 1533.11 317.068 1527.03 317.125C1522.55 317.167 1519.1 315.473 1518.08 311.486C1517.11 307.672 1517.46 303.519 1521.87 300.948C1525.23 298.99 1527.87 296.301 1527.96 291.77C1528.04 287.37 1523.35 282.997 1517.73 284.59C1508.97 287.07 1503.22 293.275 1498.35 300.218C1491.75 309.612 1485.59 319.288 1482.61 330.684C1480.17 339.999 1479.73 348.695 1485.83 356.919C1489.25 361.539 1495.7 363.608 1501.64 363.172C1515.27 362.172 1525.79 355.664 1534.47 345.829C1543.69 335.363 1550.6 323.798 1553.07 309.516C1556.07 292.101 1561.3 275.171 1568.91 259.129C1576.52 243.104 1583.84 226.908 1592.34 211.358C1598.19 200.651 1605.36 190.562 1612.87 180.915C1616.11 176.744 1621.44 173.932 1626.27 171.343C1630.32 169.176 1637.31 172.549 1639.88 176.996C1643.61 183.473 1642.97 190.199 1642.06 197.361C1640.58 209.16 1637.05 220.24 1631.64 230.584C1621.79 249.462 1607.7 264.455 1587.76 272.87C1581.87 275.358 1579.34 279.845 1578.01 285C1573.78 301.303 1570.11 317.75 1566.32 334.165C1566.14 334.967 1566.93 335.995 1567.27 336.917C1568.14 336.378 1569.47 336.039 1569.8 335.269C1572.6 328.762 1574.71 321.912 1577.98 315.666C1586.44 299.496 1594.74 283.021 1610.31 272.161C1627.02 260.505 1649.68 269.697 1655.51 288.678C1658.25 297.607 1655.88 307.391 1649.88 315.592C1643.45 324.383 1635.06 330.323 1624.54 332.662C1620 333.671 1620.26 336.592 1621.02 339.078C1622.93 345.353 1624.51 352.44 1632.47 353.955C1640.23 355.432 1646.49 351.894 1651.1 346.111C1655.48 340.615 1658.61 334.117 1662.97 328.606C1668.35 321.821 1668.65 313.539 1670.78 305.817C1672.28 300.37 1672.76 294.649 1673.91 289.095C1674.79 284.852 1678.88 282.409 1683.95 283.06C1688.33 283.622 1690.96 286.367 1690.78 290.731C1690.59 295.318 1689.59 299.871 1688.97 304.443C1688.86 305.254 1688.73 306.131 1688.92 306.895C1689.19 307.924 1689.76 308.872 1690.21 309.855C1690.91 309.262 1691.72 308.754 1692.31 308.06C1695.65 304.123 1698.58 299.778 1702.3 296.252C1709.65 289.286 1717.56 282.672 1727.81 280.736C1741.64 278.122 1757.06 279.98 1761.32 296.209C1763.58 304.822 1761.5 313.626 1758.41 322.067C1755.65 329.604 1753.34 337.306 1750.91 344.958C1750.58 345.982 1750.69 347.142 1750.59 348.238C1751.73 348.292 1752.89 348.513 1754 348.373C1768.83 346.514 1776.89 336.058 1782.71 324.049C1790.36 308.259 1797.93 292.491 1807.91 278.008C1809.72 275.373 1811.75 272.846 1813.95 270.523C1817.16 267.133 1821.06 267.079 1824.77 269.501C1829.11 272.332 1830.17 276.382 1827.59 280.721C1824.16 286.506 1820.49 292.162 1816.66 297.693C1808.01 310.187 1801.98 323.898 1798.1 338.49C1797.02 342.567 1797.19 347.312 1801 350.617C1805.53 354.541 1810.46 354.33 1815.96 352.562C1825.75 349.416 1831.43 342.022 1836.92 334.104C1842.87 325.513 1844.51 315.493 1846.82 305.705C1848.13 300.192 1848.75 294.519 1849.92 288.97C1850.81 284.782 1855.07 282.302 1860.07 283.071C1864.37 283.732 1867.02 286.391 1866.81 290.857C1866.59 295.312 1865.65 299.728 1865.29 304.182C1865.15 305.955 1865.7 307.786 1865.94 309.591C1867 308.487 1868.15 307.455 1869.11 306.267C1878.46 294.659 1889.25 285.057 1903.86 280.506C1918.12 276.068 1934.22 283.129 1937.41 296.292C1939.48 304.807 1937.48 313.471 1934.64 321.79C1931.95 329.681 1929.73 337.75 1926.71 345.509C1925.28 349.191 1927.1 349.462 1929.37 348.94C1941.71 346.095 1950.2 339.4 1955.72 327.212C1960.57 316.489 1967.67 306.417 1975.41 297.467C1982.9 288.799 1991.92 281.153 2001.28 274.474C2011.85 266.932 2024.17 263.707 2037.29 267.084C2045.36 269.162 2052.82 276.88 2054.04 286.252C2056.19 302.693 2049.19 315.903 2041.35 329.28C2037.73 335.467 2035.57 342.529 2032.98 349.284C2032.64 350.164 2033.69 351.575 2034.09 352.741C2034.8 352.224 2035.52 351.721 2036.21 351.187C2046.56 343.221 2055.71 334.075 2061.83 322.462C2069.32 308.244 2080.6 297.297 2092.03 286.531C2102.9 276.287 2115.83 269.604 2131.14 270.147C2149.53 270.799 2161.33 285.252 2156.99 304.493C2153.59 319.537 2145.36 331.892 2136.49 344.036C2134.81 346.345 2133.75 349.25 2132.96 352.038C2131.97 355.518 2134.9 356.927 2137.33 356.85C2140.51 356.75 2143.9 355.892 2146.78 354.495C2157.55 349.268 2164.32 339.913 2169.75 329.824C2176.61 317.065 2182.55 303.808 2188.88 290.763C2190.22 287.988 2192.15 285.318 2192.71 282.389C2193.28 279.386 2193.04 275.98 2192.23 273.004C2189.55 263.165 2195.87 250.61 2206.73 251.942C2211.71 252.553 2217.21 256.903 2216.7 262.155C2215.93 269.985 2218.7 274.642 2225.17 279.24C2234.59 285.932 2240.62 295.589 2238.71 307.859C2237.72 314.196 2235.11 320.317 2232.92 326.421C2230.16 334.101 2226.95 341.618 2224.18 349.294C2222.81 353.099 2225.58 355.633 2229.67 355.064C2244.09 353.054 2254.08 343.815 2263.32 333.859C2269.7 326.982 2275.26 319.275 2280.66 311.577C2284.21 306.526 2286.91 300.87 2289.85 295.406C2291.6 292.145 2289.96 291.008 2286.75 289.935C2262.14 281.686 2240.57 269.178 2228.42 244.917C2223.3 234.692 2221.49 223.811 2222.58 212.023C2223.58 201.243 2226.79 191.667 2232.99 183.28C2241.99 171.116 2253.84 163.505 2269.63 162.97C2290.89 162.25 2305.45 172.981 2315.41 190.353C2321.2 200.456 2323.56 211.953 2323.95 223.811C2324.54 241.287 2321.34 258.155 2316.48 274.763C2315.51 278.093 2316.4 279.422 2319.21 278.936C2334.25 276.333 2349.14 273.251 2363.33 267.195C2382.02 259.217 2398.93 248.2 2415.98 237.399C2422.79 233.088 2426.44 232.903 2430.35 237C2433.72 240.524 2434.12 243.798 2430.37 246.844C2424.5 251.603 2418.36 256.194 2411.81 259.916C2398.09 267.704 2384.37 275.662 2369.99 282.048C2359.04 286.908 2347.2 290.027 2335.49 292.818C2328.03 294.596 2320.06 294.13 2312.39 295.176C2310.31 295.46 2307.61 297.13 2306.69 298.93C2299.69 312.56 2292.54 326.07 2282.86 338.039C2271.2 352.471 2258.15 365.485 2239.96 371.099C2233.65 373.046 2225.98 373.516 2219.65 371.877C2207.14 368.637 2203 356.508 2207.33 343.232C2210.62 333.148 2214.86 323.363 2218.92 313.543C2222.56 304.716 2221.19 298.256 2214.04 292.688C2211.09 290.391 2208.6 290.161 2206.87 294.133C2203.91 300.908 2200.78 307.609 2197.9 314.417C2189.06 335.319 2177.86 354.672 2159.03 368.132C2148.82 375.432 2136.99 377.94 2124.83 372.858C2121.87 371.619 2119 368.709 2117.47 365.832C2115.33 361.794 2113.18 362.854 2110.77 364.69C2103 370.61 2094.57 375.121 2085.02 377.376C2074.32 379.903 2062.55 375.346 2056.7 365.262C2054.46 361.402 2052.54 361.071 2048.68 363.519C2040.96 368.404 2032.74 372.483 2024.85 377.107C2023.54 377.876 2022.62 379.608 2021.91 381.083C2013.72 398.098 2005.6 415.166 1991.78 428.581C1985.26 434.905 1977.96 439.005 1968.19 438.17C1958.36 437.33 1950.26 426.317 1951.69 416.5C1953.69 402.727 1962.78 394.533 1972.2 385.915C1981.8 377.12 1993.97 373.221 2004.91 367C2006.69 365.991 2008.35 364.737 2009.91 363.414C2010.59 362.841 2010.87 361.807 2011.33 360.982C2010.08 360.934 2008.57 360.407 2007.61 360.916C2002.12 363.816 1996.92 367.272 1991.34 369.955C1982.4 374.25 1973.16 376.106 1964.24 369.957C1961.03 367.749 1958.27 364.855 1955.5 362.077C1953.55 360.121 1952.01 359.35 1949.2 360.939C1940.87 365.635 1931.73 366.591 1922.31 366.059C1918.02 365.815 1909.23 359.389 1908.85 352.902C1908.31 343.649 1910.48 335.012 1913.79 326.437C1916.56 319.24 1918.65 311.771 1920.82 304.356C1921.67 301.466 1918.37 298.43 1914.68 298C1907.73 297.191 1901.52 299.419 1896.68 303.938C1889.23 310.896 1882.68 318.799 1875.37 325.923C1866.92 334.169 1858.16 342.114 1849.35 349.978C1843.83 354.907 1838.21 359.795 1832.19 364.083C1821.41 371.77 1809.34 373.875 1797.01 368.792C1792.41 366.892 1788.54 362.668 1784.99 358.891C1782.45 356.185 1780.99 354.819 1777.56 357.712C1768.13 365.656 1756.73 366.944 1745.04 365.917C1739.09 365.393 1733.25 357.227 1732.81 351.12C1731.9 338.486 1737.86 327.622 1741.3 316.106C1742.46 312.253 1743.76 308.442 1744.8 304.56C1745.61 301.55 1742.6 298.46 1738.89 298.005C1731.96 297.155 1725.96 299.554 1720.78 303.738C1714.71 308.646 1708.95 313.964 1703.19 319.251C1696.9 325.028 1690.68 330.89 1684.58 336.866C1676.62 344.657 1669.13 352.966 1660.81 360.333C1655.82 364.743 1650.06 369.359 1643.87 371.068C1634.16 373.749 1624.36 372.494 1616.12 364.919C1606.72 356.264 1603.24 344.936 1601.01 333.162C1599.09 323.01 1600.77 318.908 1606.16 317.375C1609.5 316.425 1613.2 316.781 1616.59 315.955C1623.74 314.219 1630.7 312.197 1635.16 305.362C1639.27 299.051 1638.63 291.191 1634.34 287.903C1629.21 283.968 1621.82 283.921 1617.03 289.643C1610.13 297.879 1603.32 306.441 1598.09 315.771C1590.95 328.518 1585.43 342.166 1579 355.324C1576.62 360.196 1573.77 364.86 1570.89 369.46C1566.77 376.024 1560.78 376.879 1555.17 371.766C1552.17 369.038 1549.32 366.163 1549.79 361.465C1549.9 360.391 1548.91 359.208 1548.43 358.075C1547.5 358.631 1546.36 358.998 1545.69 359.773C1537.46 369.284 1527.04 375.689 1515.17 379.026C1500.22 383.23 1485.47 383.361 1473.9 370.438C1471.19 367.413 1468.86 363.921 1466.98 360.32C1465.39 357.279 1464.22 357.446 1461.91 359.428C1451.52 368.385 1439.55 372.856 1425.74 370.969C1418.02 369.914 1412.31 365.265 1407.94 359.099C1405.76 356.023 1404.23 354.888 1400.65 357.583C1393.62 362.872 1386.52 368.274 1378.78 372.36C1368.62 377.727 1357.81 380.087 1346.35 375.121C1336.39 370.806 1331.09 363.222 1328.9 353.042C1327.15 344.916 1327.3 336.864 1330.29 328.965C1330.4 328.668 1328.44 327.154 1328.31 327.259C1325.72 329.406 1322.91 330.998 1322.7 335.353C1322.34 342.802 1321.66 350.416 1319.66 357.558C1317.62 364.87 1312.51 370.304 1305.53 374.143C1298.29 378.124 1291.02 381.566 1282.66 381.698C1273.53 381.841 1265.97 377.893 1260.46 370.908C1255.82 365.024 1254.72 357.91 1258.97 351.321C1265.21 341.636 1273.27 333.861 1284.54 329.971C1289.19 328.369 1293.51 325.789 1298.2 324.349C1302.52 323.022 1302.29 320.433 1301.49 317.113C1300.23 311.957 1299.1 306.77 1297.84 301.614C1297.7 301.024 1296.99 300.068 1296.68 300.118C1295.8 300.256 1294.61 300.606 1294.22 301.27C1285.34 316.508 1272.68 328.569 1261.17 341.675C1248.77 355.788 1234.92 367.17 1217.14 373.13C1200.06 378.859 1183.63 377.579 1169.14 365.688C1166.93 363.87 1165.51 361.101 1163.34 359.196C1162.57 358.514 1160.43 358.598 1159.36 359.165C1152.51 362.78 1146.1 367.457 1138.93 370.216C1126.2 375.125 1109.43 368.509 1103.29 356.825C1101.28 352.984 1099.46 353.115 1096.67 355.709C1088.04 363.746 1078.19 369.59 1066.72 372.731C1053.39 376.384 1041.19 370.575 1037.48 358.023C1035.26 350.504 1037.72 343.176 1040.33 336.189C1043.18 328.552 1046.8 321.205 1049.84 313.635C1053.11 305.495 1053.58 300.084 1045.78 293.549C1040.71 289.304 1039.77 290.202 1037.59 294.898C1034.48 301.6 1031.8 308.497 1028.87 315.284C1017.33 342.049 1000.59 364.033 971.739 373.44C955.14 378.851 938.732 377.63 924.469 366.009C922.121 364.095 920.279 361.495 918.447 359.031C916.41 356.294 914.366 357.056 912.551 358.911C905.118 366.51 896.176 371.583 886.263 375.155C869.513 381.188 853.384 376.835 845.659 361.192C841.133 352.028 840.901 342.189 843.122 332.281C843.276 331.595 843.423 330.907 843.573 330.22C842.67 330.326 841.22 330.122 840.956 330.589C839.441 333.266 837.354 336.01 837.039 338.903C836.112 347.398 835.983 356.028 830.944 363.421C823.784 373.926 814.703 381.637 801.684 384.107C792.318 385.884 784.299 384.124 777.059 377.792C768.876 370.635 769.29 356.852 774.534 348.833C780.036 340.419 788.878 336.956 797.424 333.044C802.745 330.61 808.147 328.354 813.517 326.028C816.147 324.888 817.337 323.869 816.085 320.266C813.993 314.249 813.236 307.771 811.836 301.505C811.711 300.944 810.808 300.026 810.587 300.11C809.62 300.481 808.386 300.946 807.935 301.759C798.514 318.688 783.52 330.685 770.158 344.041C757.05 357.142 742.913 369.126 726.072 377.466C724.115 378.435 722.344 380.385 721.209 382.307C714.974 392.864 710.025 404.378 702.582 413.971C695.005 423.736 686.662 433.506 673.563 437.161C666.24 439.205 660.279 437.646 655.181 432.701C649.818 427.498 648.406 420.93 650.662 413.76C656.997 393.617 672.039 382.147 690.415 374.021C695.627 371.716 700.997 369.677 705.932 366.877C708.056 365.672 709.545 363.001 710.805 360.711C712.354 357.895 713.424 354.804 714.572 351.783C714.936 350.827 714.887 349.715 715.027 348.675C713.772 348.831 712.165 348.542 711.313 349.212C700.687 357.566 688.563 361.338 675.187 360.894C672.738 360.813 670.128 359.357 667.974 357.951C664.421 355.63 661.996 356.47 659.032 359.212C653.823 364.029 648.169 367.87 640.678 369.235C632.2 370.78 625.447 368.17 619.487 363.015C606.572 351.844 599.852 337.249 597.953 320.501C596.569 308.292 594.936 295.99 595.132 283.757C595.345 270.459 596.954 257.099 599.016 243.933C602.157 223.87 605.702 203.839 610.048 184.007C613.195 169.648 617.547 155.515 622.056 141.504C625.589 130.523 630.221 119.897 634.25 109.07C634.611 108.101 634.124 106.817 634.031 105.679C633.088 106.186 631.738 106.448 631.263 107.237C623.4 120.297 615.667 133.435 607.864 146.531C597.986 163.109 587.76 179.49 578.284 196.294C572.153 207.165 567.082 218.636 561.56 229.849C557.062 238.984 552.278 247.996 548.2 257.316C542.585 270.149 537.23 283.113 532.297 296.222C527.789 308.202 523.997 320.452 519.875 332.579C517.923 338.319 513.177 341.897 507.514 341.043C503.069 340.373 498.903 334.872 498.885 329.357C498.858 320.858 498.759 312.356 498.905 303.859C499.136 290.495 499.415 277.13 499.914 263.775C500.415 250.379 501.066 236.984 501.92 223.606C502.724 211.008 503.749 198.421 504.925 185.852C505.654 178.069 506.955 170.34 507.656 162.556C507.721 161.826 505.285 160.093 504.07 160.149C494.337 160.595 484.594 161.148 474.915 162.213C473.098 162.413 470.647 164.742 470.015 166.606C462.139 189.858 454.272 213.122 446.965 236.557C441.2 255.046 436.758 273.956 430.734 292.353C423.844 313.396 412.819 332.061 397.945 348.856C381.977 366.887 362.72 379.743 341.38 389.867C328.59 395.935 314.991 400.03 300.916 401.961C286.646 403.919 272.329 405.603 257.989 406.936C249.172 407.755 240.219 408.482 231.422 407.875C206.734 406.17 182.64 401.82 159.885 391.178C148.056 385.646 135.459 381.772 123.264 377.006C107.564 370.869 92.674 363.021 79.3691 352.747C69.0609 344.787 59.394 335.872 50.1999 326.628C39.769 316.14 31.3683 303.974 24.2544 290.944C17.5037 278.579 11.3123 265.955 7.75624 252.289C5.35088 243.046 3.16505 233.655 2.04272 224.192C0.681801 212.717 0.0504 201.1 0.001039 189.54C-0.062996 174.545 2.84091 159.813 7.05041 145.5C13.588 123.27 23.9687 102.713 38.2059 84.4784C48.0657 71.8504 59.1104 60.0695 72.5167 50.8952C80.8217 45.2118 88.769 38.8551 97.5738 34.0878C111.14 26.7426 125.461 20.9695 140.471 16.9778C162.33 11.1643 184.64 9.80405 206.982 11.2427C224.659 12.3809 242.166 15.9341 258.74 22.5071C279.578 30.7714 299.327 41.0051 316.413 55.9458C330.593 68.3449 344.019 81.4803 354.332 97.227C363.904 111.842 371.65 127.434 377.108 144.276C381.874 158.98 384.588 173.789 386.032 189.106C387.808 207.942 385.879 226.229 382.111 244.681C379.379 258.066 374.941 270.744 369.229 282.882C363.174 295.751 355.95 308.139 346.448 318.955C341.617 324.454 337.098 330.271 331.89 335.387C319.678 347.385 306.243 357.771 291.167 366.112C275.37 374.852 258.719 381.297 241.36 385.863C235.376 387.437 228.948 387.291 222.741 388.075C221.418 388.242 220.174 389.036 218.893 389.541C220.217 390.369 221.566 391.953 222.86 391.91C237.314 391.427 251.796 391.123 266.194 389.89C277.894 388.889 289.554 387.038 301.118 384.941C316.752 382.105 331.527 376.799 345.529 369.047C357.664 362.327 369.342 354.922 379.036 345.132C397.113 326.876 410.006 305.416 416.968 280.402C424.232 254.3 432.049 228.348 439.946 202.427C443.947 189.294 448.448 176.301 453.169 163.407C454.579 159.556 452.687 158.813 450.089 158.046C436.996 154.179 425.235 148.004 415.062 138.763C399.687 124.795 389.146 107.67 382.708 88.1613C378.845 76.4579 378.941 64.4076 381.705 52.1119C385.678 34.4334 394.902 20.5378 409.387 10.2138C416.765 4.95475 425.336 2.28172 434.509 0.797928C443.702-0.68919 452.686-0.050446 461.22 2.32076C468.82 4.43251 476.339 8.18421 482.809 12.7497C499.141 24.2749 510.049 40.286 516.689 58.9955C518.198 63.2477 520.232 62.3342 522.181 60.9364C529.929 55.3789 538.852 54.07 547.843 54.1556C563.694 54.3066 577.867 66.6353 578.072 84.2395C578.269 101.133 571.336 114.4 560.809 126.693C551.561 137.493 540.636 145.869 527.93 152.178C526.06 153.106 524.276 155.967 524.028 158.116C522.403 172.196 521.189 186.325 519.891 200.442C519.475 204.963 519.131 209.493 518.896 214.027C518.497 221.718 518.211 229.416 517.878 237.111C517.211 252.501 516.517 267.89 515.93 283.283C515.883 284.516 516.577 285.777 516.926 287.026C517.577 285.883 518.375 284.8 518.855 283.59C523.002 273.141 526.733 262.51 531.284 252.241C538.028 237.026 544.968 221.872 552.521 207.047C559.553 193.245 567.251 179.764 575.102 166.403C584.104 151.085 593.259 135.834 602.961 120.953C616.092 100.814 629.588 80.9015 643.393 61.2185C648.042 54.5897 654.109 48.9548 659.535 42.8711C662.676 39.3492 666.536 39.0918 670.386 41.1377C674.304 43.2195 675.999 48.937 674.383 53.019C665.429 75.6425 655.943 98.0739 647.686 120.949C641.288 138.677 636.131 156.875 630.975 175.021C627.188 188.35 623.989 201.867 621.101 215.423C618.895 225.775 617.236 236.277 615.971 246.789C614.564 258.492 613.933 270.287 612.865 282.033C611.202 300.326 613.635 318.137 620.07 335.232C621.954 340.238 625.709 344.767 629.383 348.81C633.406 353.238 637.628 353.114 642.911 349.461C649.889 344.636 656.698 338.872 658.472 330.567C660.669 320.285 663.208 310.316 667.871 300.9C671.692 293.184 676.087 285.896 682.441 279.925C686.1 276.487 689.924 278.415 692.533 280.554C695.108 282.666 697.48 286.281 695.131 290.217C691.85 295.716 687.985 300.889 684.989 306.531C679.6 316.678 675.951 327.391 676.89 339.16C677.201 343.055 680.096 343.579 682.963 342.957C692.346 340.921 700.565 336.505 707.515 329.859C711.347 326.194 715.194 322.519 718.743 318.587C723.833 312.947 724.685 305.723 726.017 298.588C726.767 294.574 728.529 290.601 730.548 287.011C733.101 282.473 738.063 282.02 742.261 283.231C746.697 284.512 749.243 288.534 749.852 293.278C750.676 299.703 748.742 305.712 745.331 310.859C741.239 317.034 739.906 324.003 737.914 330.814C736.257 336.482 734.834 342.224 733.501 347.978C733.183 349.353 733.634 350.907 733.73 352.378C734.791 351.749 735.951 351.242 736.897 350.472C744.386 344.378 752.121 338.546 759.212 332.015C765.603 326.128 771.739 319.83 777.153 313.047C784.445 303.91 791.242 294.332 797.612 284.528C799.968 280.903 800.825 276.17 801.791 271.814C802.813 267.211 802.045 261.693 806.713 258.971C809.399 257.405 813.561 256.406 816.247 257.382C818.693 258.271 821.848 262.376 821.585 264.713C819.893 279.71 827.694 292.258 831.226 305.873C831.772 307.979 832.129 310.168 832.978 312.145C833.307 312.913 835.412 313.817 835.605 313.614C841.115 307.793 846.562 301.905 851.836 295.868C853.636 293.808 853.372 292.25 850.371 290.854C844.964 288.339 843.251 284.825 844.977 279.84C846.475 275.512 850.303 273.682 854.726 274.102C859.181 274.525 861.207 272.686 863.003 268.676C868.044 257.419 873.613 246.396 879.092 235.339C884.124 225.182 889.547 215.219 898.548 207.922C905.928 201.94 913.538 201.019 918.439 206.936C921.859 211.065 921.893 215.521 919.731 219.466C913.752 230.374 907.1 240.911 900.788 251.639C897.405 257.389 894.179 263.232 890.877 269.03C888.931 272.447 889.687 274.226 893.848 274.03C901.209 273.682 908.568 273.248 915.933 273.061C921.697 272.915 926.606 276.991 926.878 281.801C927.119 286.07 921.189 290.916 915.796 291.044C904.266 291.317 892.74 291.735 881.21 292.007C875.845 292.133 874.465 296.821 871.925 300.037C865.401 308.303 864.229 318.588 861.975 328.379C860.763 333.644 860.092 339.127 859.969 344.53C859.684 357.119 866.918 362.419 878.717 358.684C894.249 353.767 905.793 343.561 914.724 330.419C917.591 326.2 918.126 320.461 920.648 315.929C925.571 307.082 930.248 297.847 936.677 290.152C944.29 281.042 952.618 272.236 964.045 267.271C975.887 262.125 989.296 263.046 997.378 270.917C1004.46 277.812 1005.52 289.862 1002.31 298.105C997.602 310.18 988.605 318.023 977.499 324.082C964.982 330.911 951.87 335.76 937.778 338.077C931.547 339.102 929.925 344.775 934.104 349.766C941.195 358.234 950.782 359.431 960.567 357.646C974.002 355.194 985.282 348.376 994.428 338.04C1002.12 329.351 1007.04 319.092 1011.87 308.749C1014.81 302.467 1017.88 296.236 1020.49 289.822C1022.81 284.146 1026.28 279.158 1023.26 271.81C1020.61 265.358 1023.09 257.826 1029.77 254.004C1032.8 252.273 1037.46 252.24 1041.07 252.977C1045.48 253.878 1048.03 258.201 1047.68 262.352C1047.04 269.943 1049.51 274.52 1055.94 279.046C1065.52 285.78 1071.71 295.562 1069.71 308.055C1068.69 314.385 1066.02 320.477 1063.84 326.584C1061.15 334.126 1058.07 341.532 1055.39 349.077C1053.9 353.267 1056.4 355.717 1060.86 355.049C1075.41 352.87 1085.53 343.535 1094.78 333.362C1105.27 321.812 1110.21 306.801 1117.99 293.541C1122.27 286.24 1127.05 279.185 1132.12 272.41C1138.17 264.341 1145.69 268.295 1148.28 273.87C1150.12 277.815 1147.71 280.538 1145.95 283.407C1139.42 294.051 1132.17 304.303 1126.39 315.335C1122.51 322.767 1119.9 331.097 1118.07 339.325C1115.89 349.152 1123.28 356.711 1135.85 352.608C1145.55 349.441 1151.87 342.465 1156.78 334.153C1160.29 328.199 1162.55 321.513 1165.96 315.484C1170.86 306.802 1175.39 297.672 1181.72 290.102C1189.34 280.992 1197.67 272.176 1209.1 267.231C1220.91 262.118 1234.34 263.045 1242.43 270.963C1249.39 277.783 1250.52 289.903 1247.27 298.159C1242.53 310.228 1233.54 318.019 1222.44 324.096C1209.92 330.95 1196.8 335.761 1182.71 338.081C1176.86 339.044 1174.81 344.324 1178.52 349.046C1182.7 354.363 1188.28 357.737 1195.26 358.004C1210.87 358.601 1223.4 352.127 1235.37 342.418C1248.24 331.986 1257.98 318.931 1268.42 306.536C1275.8 297.789 1281.25 287.33 1286.86 277.25C1288.67 274.003 1288.35 269.537 1288.86 265.61C1289.61 259.828 1293.5 256.783 1300.01 257.026C1304.03 257.175 1308.37 261.725 1307.77 266.367C1306.06 279.688 1313.09 290.82 1316.28 302.902C1316.99 305.583 1318.09 308.162 1318.85 310.831C1319.52 313.15 1320.27 313.24 1321.95 311.516C1327.29 306.016 1332.73 300.615 1338.19 295.237C1340.6 292.87 1340.55 291.875 1336.93 290.912C1331.85 289.561 1329.85 285.796 1330.92 280.422C1331.84 275.82 1335.63 273.817 1339.61 274.208C1345.22 274.761 1347.77 272.162 1349.84 267.628C1354.77 256.831 1359.79 246.07 1365.04 235.426C1370.05 225.273 1375.49 215.336 1384.46 207.981C1391.39 202.294 1399.46 200.781 1404.35 206.875C1407.74 211.113 1407.92 215.479 1405.52 219.777C1399.61 230.36 1393.36 240.755 1387.19 251.195C1383.47 257.496 1379.69 263.764 1375.86 269.999C1373.95 273.117 1375.2 274.137 1378.33 274.017C1386.35 273.709 1394.38 273.33 1402.41 273.038C1406.53 272.887 1409.86 274.609 1411.58 278.32C1414.14 283.819 1409.51 290.782 1403.32 291.01C1392.79 291.399 1382.18 292.609 1371.75 291.751C1362.49 290.99 1357.57 296.134 1355.16 302.754C1350.3 316.133 1346.06 329.91 1345.91 344.421C1345.77 357.239 1352.89 362.288 1365 358.434C1381.92 353.053 1393.95 341.756 1402.8 326.911C1409.21 316.143 1414.65 304.798 1420.96 293.962C1425.29 286.52 1430.04 279.272 1435.18 272.369C1441.2 264.282 1448.78 268.343 1451.32 273.924C1453.09 277.833 1450.67 280.574 1448.91 283.458C1442.48 293.974 1435.36 304.121 1429.69 315.024C1425.75 322.609 1422.98 331.03 1421.08 339.395C1418.85 349.206 1426.41 356.686 1438.91 352.586C1448.65 349.39 1454.94 342.394 1459.76 334.076C1464 326.761 1467.14 318.813 1470.91 311.218C1472.72 307.567 1474.88 304.085 1476.88 300.026M308.378 125.026C315.124 114.871 318.819 103.381 322.924 92.056C324.236 88.4355 323.531 85.7576 320.672 83.2666C316.473 79.6072 312.335 75.8633 308.363 71.96C302.374 66.0757 301.224 67.1569 297.967 74.098C290.068 90.9295 279.754 106.224 267.315 119.803C251.082 137.523 233.564 153.896 212.886 166.71C192.931 179.076 172.199 189.727 149.889 196.853C135.539 201.437 120.719 204.626 106 207.955C89.1114 211.775 71.9139 213.229 54.6051 212.988C46.243 212.872 37.8804 212.466 29.5287 211.999C18.1435 211.363 18.189 211.282 18.8584 222.335C19.1401 226.985 22.0453 229.446 25.9192 230.987C29.6407 232.467 33.4522 233.752 37.2886 234.909C55.616 240.435 74.2602 244.295 93.4934 243.941C103.389 243.758 113.382 243.402 123.13 241.857C137.199 239.627 151.274 236.936 165.004 233.189C184.55 227.854 203.19 220.143 220.788 209.793C240.085 198.444 258.031 185.4 274.229 170.021C279.997 164.544 285.362 158.5 290.096 152.112C296.438 143.557 301.988 134.415 308.378 125.026M488.878 41.5256C483.264 36.2448 478.157 30.2511 471.935 25.8244C456.611 14.9208 439.851 13.3379 422.898 21.6464C404.435 30.6948 397.771 47.8094 396.185 66.6204C394.998 80.6901 401.525 93.3161 408.856 105.203C418.951 121.57 431.731 134.543 450.711 140.452C461.354 143.765 462.832 143.319 466.877 132.469C474.422 112.233 486.442 94.7316 500.174 78.3125C502.679 75.3169 503.894 72.4615 502.105 68.7379C497.835 59.8473 493.617 50.9313 488.878 41.5256M315.878 144.526C307.277 155.46 299.128 166.794 289.922 177.191C283.455 184.495 275.989 191.108 268.184 196.986C255.485 206.55 242.64 216.11 228.949 224.119C211.251 234.471 192.451 242.739 172.716 248.782C152.844 254.867 132.558 258.819 111.894 259.832C94.3075 260.695 76.5679 260.932 59.1702 257.001C49.139 254.734 39.1663 252.208 29.16 249.829C28.3866 249.645 27.2215 249.358 26.8287 249.734C26.2379 250.301 25.6578 251.716 25.9682 252.237C27.1851 254.28 28.3465 256.986 30.2594 257.877C39.4618 262.167 48.7279 266.444 58.2987 269.79C72.8864 274.888 88.1067 277.625 103.475 278.891C112.468 279.631 121.593 279.413 130.62 278.923C140.893 278.366 151.259 277.747 161.339 275.85C175.102 273.259 188.749 269.85 202.234 266.041C220.742 260.812 238.105 252.789 254.598 242.849C270.983 232.974 286.71 222.156 300.401 208.786C308.41 200.965 315.485 192.165 322.743 183.604C333.945 170.389 341.822 155.147 348.85 139.449C352.233 131.892 352.213 124.694 346.436 117.931C343.943 115.014 342.402 111.295 340.316 108.013C339.611 106.903 338.557 106.015 337.663 105.026C336.735 106.251 335.471 107.346 334.93 108.724C330.042 121.179 324.057 133.044 315.878 144.526M226.378 297.026C234.911 293.492 243.942 290.82 251.869 286.238C266.202 277.953 280.084 268.831 293.768 259.492C307.356 250.217 319.002 238.737 330.112 226.546C342.961 212.446 353.686 196.89 364.209 181.126C366.393 177.854 367.769 174.55 366.064 170.092C364.24 165.325 363.916 159.99 362.834 154.925C362.685 154.227 361.944 153.655 361.477 153.026C360.944 153.59 360.203 154.062 359.908 154.731C351.39 174.087 339.667 191.425 325.34 206.805C315.839 217.003 305.757 226.931 294.677 235.317C280.854 245.78 266.223 255.414 251.046 263.785C235.017 272.626 217.854 279.197 200.156 284.453C177.68 291.129 154.789 294.777 131.503 295.878C120.355 296.404 109.124 295.526 97.9468 294.955C92.3817 294.671 86.7052 294.225 81.3396 292.842C68.5978 289.557 56.0191 285.642 43.3471 282.079C42.3446 281.797 41.1304 282.268 40.0146 282.389C40.3024 283.398 40.4518 284.474 40.9002 285.405C44.0099 291.868 50.1872 294.023 56.3329 295.991C74.6615 301.862 93.0652 307.311 112.394 309.114C126.324 310.414 140.108 313.042 154.231 311.098C166.456 309.415 178.924 309.157 190.997 306.797C202.649 304.519 213.933 300.359 226.378 297.026M2238.88 219.526C2238.95 231.67 2244.23 241.827 2252.02 250.479C2262.46 262.062 2276.19 268.811 2290.66 273.957C2297.35 276.334 2297.86 275.806 2299.88 269.736C2301.1 266.082 2302.76 262.525 2303.54 258.782C2306.67 243.649 2310.22 228.495 2305.88 212.963C2302.95 202.491 2299.32 192.429 2290.02 185.669C2274.62 174.478 2259.34 178.675 2249.25 189.449C2241.86 197.339 2238.28 207.387 2238.88 219.526M221.378 104.026C218.59 101.904 215.944 99.5583 212.991 97.6992C197.143 87.7223 181.749 76.84 165.163 68.2761C150.459 60.6844 134.355 55.83 118.965 49.5331C112.803 47.012 107.201 47.8094 102.063 51.5059C99.9806 53.004 96.8744 56.1679 97.3321 57.5423C98.8508 62.1035 98.5154 67.9847 104.827 70.1274C111.079 72.2498 117.218 74.8682 123.108 77.8574C136.619 84.7141 150.21 91.482 163.269 99.1383C173.957 105.404 184.139 112.606 194.138 119.948C202.174 125.849 209.509 132.697 217.388 138.824C218.651 139.806 221.774 140.064 222.953 139.191C227.887 135.539 232.293 131.181 237.118 127.367C241.092 124.227 240.052 121.516 237.016 118.668C231.978 113.945 226.925 109.239 221.378 104.026M172.378 32.0255C165.604 28.8085 158.808 30.8519 152.065 32.0706C147.78 32.845 143.544 33.9534 139.354 35.1484C138.387 35.4242 137.696 36.6671 136.878 37.465C137.787 37.9852 138.652 38.6139 139.614 39.0073C144.597 41.0465 149.79 42.6604 154.57 45.0916C171.224 53.5627 188.189 61.557 204.18 71.1585C220.906 81.202 236.049 93.6246 249.352 108.062C251.501 110.394 253.2 110.81 255.281 108.145C259.121 103.227 263.163 98.457 266.804 93.3974C267.447 92.5037 267.115 89.9046 266.273 89.1066C260.124 83.2787 254.226 76.9868 247.3 72.2204C235.505 64.1029 223.352 56.3609 210.72 49.6459C198.52 43.1606 185.524 38.1718 172.378 32.0255M2125.38 289.026C2121.42 290.319 2117.13 291.02 2113.56 293.014C2101.88 299.54 2092.8 309.187 2084.9 319.719C2078.21 328.639 2072.02 338.069 2069.93 349.448C2069.14 353.732 2073.67 360.47 2077.95 359.818C2083.22 359.016 2088.79 357.561 2093.26 354.81C2100.02 350.65 2105.98 345.173 2112.21 340.173C2125.61 329.422 2136.07 316.504 2141.42 299.918C2141.71 299.019 2141.49 297.837 2141.2 296.884C2138.75 288.974 2135.22 287.075 2125.38 289.026M1996.38 301.026C1992.85 304.888 1989.35 308.778 1985.78 312.607C1977.75 321.238 1971.83 331.061 1968.89 342.549C1967.14 349.372 1972.16 356.922 1978.07 355.904C1982.12 355.206 1986.27 353.904 1989.85 351.928C2002.72 344.838 2013.28 334.695 2023.01 323.998C2029.4 316.969 2034.28 308.495 2037.05 298.949C2038.53 293.846 2037.71 289.856 2034.5 286.264C2031.39 282.781 2026.98 283.576 2023.12 284.385C2012.51 286.607 2004.35 293.061 1996.38 301.026M84.878 151.526C80.5446 141.988 75.7997 132.611 71.9889 122.869C67.8338 112.246 64.5853 101.27 60.7875 90.5021C60.5314 89.776 58.2419 88.9633 58.1375 89.1049C55.3418 92.8953 50.0136 97.2063 50.5218 100.625C52.5563 114.311 55.5529 128.003 59.8093 141.17C65.1546 157.706 72.0302 173.752 78.3752 189.958C79.594 193.071 81.6101 195.679 85.6506 195.023C91.7379 194.034 97.8151 192.981 103.911 192.046C106.73 191.613 107.48 191.201 105.65 188.105C98.6337 176.232 92.095 164.076 84.878 151.526M105.878 121.526C97.9047 104.519 88.7513 88.0259 83.7838 69.7155C83.0423 66.9823 80.6207 66.5226 78.1021 68.2831C73.402 71.5685 73.0415 73.6257 74.8347 80.2972C80.8642 102.729 89.7641 124.062 100.009 144.801C105.224 155.357 111.711 165.295 117.8 175.405C124.642 186.767 124.729 186.715 137.303 183.101C143.083 181.439 143.19 181.278 139.558 176.228C127.154 158.98 115.846 141.067 105.878 121.526M529.878 132.526C530.702 131.702 531.429 130.743 532.364 130.075C546.14 120.218 557.112 108.515 561.321 91.2766C564.008 80.2748 556.332 69.5147 546.464 71.099C541.101 71.9601 535.631 72.9988 530.614 74.9799C523.366 77.8415 522.144 80.7276 522.84 87.4692C523.668 95.4974 524.403 103.545 524.816 111.603C525.13 117.745 525.032 123.921 524.822 130.071C524.688 134.008 526.279 134.479 529.878 132.526M273.878 293.526C265.875 297.529 257.859 301.507 249.888 305.573C249.08 305.985 248.477 306.883 247.952 307.672C247.878 307.783 248.727 308.827 249.278 308.985C257.623 311.377 265.93 313.94 274.366 315.963C285.165 318.553 296.125 320.475 306.914 323.1C314.413 324.925 320.598 324.014 325.222 317.242C326.762 314.987 328.723 313.021 330.484 310.916C331.292 309.951 332.081 308.97 332.878 307.997C331.576 307.34 330.335 306.494 328.964 306.055C316.018 301.909 303.027 297.903 290.099 293.701C284.87 292.001 279.865 287.718 273.878 293.526M295.378 343.026C296.397 342.673 297.572 342.53 298.395 341.914C299.38 341.177 300.064 340.038 300.878 339.072C299.964 338.723 299.077 338.248 298.132 338.047C293.23 337.001 288.331 335.922 283.398 335.044C266.234 331.993 249.715 326.888 233.654 320.113C229.161 318.218 225.03 314.768 219.235 316.89C213.861 318.858 208.05 319.609 202.483 321.087C201.177 321.433 200.074 322.548 198.878 323.309C199.846 324.015 200.768 324.798 201.794 325.408C202.848 326.035 203.994 326.513 205.116 327.022C213.942 331.028 222.458 336.111 231.674 338.771C245.461 342.751 259.817 344.711 273.78 348.146C281.849 350.132 288.559 348.96 295.378 343.026M171.878 327.526C164.632 327.772 157.186 327.055 150.187 328.499C140.556 330.485 131.3 334.235 121.812 336.981C115.249 338.88 108.546 340.291 101.953 342.091C100.808 342.403 99.8969 343.568 98.878 344.339C99.6371 345.161 100.246 346.27 101.18 346.757C107.875 350.251 114.505 353.928 121.437 356.886C124.572 358.223 128.821 359.37 131.752 358.326C141.724 354.773 151.32 350.172 161.087 346.037C168.305 342.98 175.588 340.075 182.764 336.924C183.29 336.693 183.614 334.314 183.306 334.127C179.744 331.96 176.042 330.023 171.878 327.526M161.378 175.026C168.609 173.212 170.16 168.363 170.072 161.369C169.954 152.023 171.502 142.666 171.72 133.3C171.796 130.022 175.404 126.049 170.578 123.198C167.763 121.535 165.022 119.741 162.299 117.928C158.813 115.608 157.286 118.126 156.99 120.683C156.025 129.008 155.569 137.391 154.856 145.746C154.724 147.302 154.072 148.833 154.065 150.378C154.027 159.128 151.894 168.45 161.378 175.026M485.878 130.526C484.211 133.83 482.328 137.046 480.929 140.46C478.897 145.424 479.43 146.392 484.734 145.92C490.852 145.375 496.874 143.822 502.983 143.092C507.537 142.548 509.043 140.141 508.901 135.891C508.501 123.881 508.199 111.866 507.901 99.8526C507.878 98.9144 508.18 97.9681 508.331 97.0256C507.317 97.389 505.815 97.4444 505.361 98.1623C498.784 108.565 492.348 119.056 485.878 130.526M1228.38 283.026C1225.7 282.707 1222.75 281.513 1220.38 282.229C1212.22 284.697 1205.14 289.435 1199.71 295.905C1194.26 302.403 1189.71 309.661 1184.83 316.635C1184.41 317.241 1184.51 318.214 1184.37 319.017C1185.29 319.102 1186.29 319.467 1187.12 319.223C1190.36 318.261 1193.55 317.113 1196.76 316.025C1207.66 312.324 1218.07 307.76 1226.19 299.204C1231.29 293.825 1232.32 287.656 1228.38 283.026M978.378 302.026C980.258 299.812 982.873 297.874 983.832 295.316C985.029 292.122 986.041 287.997 984.988 285.038C983.656 281.295 978.886 281.204 975.558 282.166C967.186 284.586 960.11 289.572 954.486 296.106C949.88 301.457 946.109 307.536 942.086 313.375C940.923 315.063 940.168 317.033 939.226 318.874C941.284 318.591 943.424 318.577 945.388 317.981C956.983 314.461 968.365 310.443 978.378 302.026M203.378 346.026C201.244 346.493 198.967 346.632 197.003 347.488C190.803 350.189 184.741 353.204 178.588 356.014C171.179 359.396 163.721 362.668 156.316 366.057C155.402 366.475 154.686 367.323 153.878 367.972C154.816 368.656 155.678 369.748 156.708 369.943C159.075 370.391 161.523 370.426 163.941 370.584C170.465 371.009 176.897 373.759 183.509 370.106C191.182 365.867 199.222 362.298 207.043 358.322C210.672 356.477 214.161 354.357 217.714 352.361C213.933 350.249 210.17 348.105 206.353 346.064C205.835 345.787 205.043 346.026 203.378 346.026M117.378 93.0255C115.108 92.6283 112.839 92.2311 110.57 91.8339C111.28 94.0058 111.728 96.3103 112.747 98.3267C117.33 107.399 122.05 116.403 126.771 125.404C129.422 130.457 132.079 135.512 134.949 140.441C135.604 141.568 137.148 142.178 138.283 143.026C138.481 141.798 138.733 140.576 138.869 139.341C139.885 130.124 140.333 120.799 142.106 111.732C143 107.16 141.56 105.398 138.081 103.694C131.311 100.377 124.609 96.9228 117.378 93.0255M364.878 240.526C365.878 235.78 367.091 231.068 367.824 226.282C368.719 220.435 369.268 214.532 369.83 208.64C369.942 207.466 369.432 206.232 369.21 205.026C368.187 205.771 366.919 206.329 366.181 207.292C361.164 213.842 356.485 220.663 351.24 227.021C347.644 231.381 347.343 235.464 349.816 240.341C351.476 243.618 352.656 247.156 353.846 250.647C354.993 254.011 355.819 257.483 356.923 260.863C357.172 261.625 357.985 262.203 358.538 262.866C358.985 262.218 359.652 261.63 359.844 260.915C361.569 254.465 363.211 247.992 364.878 240.526M330.878 274.526C332.997 278.978 334.787 283.638 337.384 287.792C338.578 289.701 341.356 290.62 343.415 291.988C344.236 289.33 346.258 286.367 345.675 284.064C342.787 272.671 339.243 261.443 335.815 250.192C335.552 249.33 334.408 248.146 333.646 248.126C329.746 248.018 323.291 257.603 324.771 261.356C326.463 265.649 328.494 269.808 330.878 274.526M27.378 185.026C31.715 181.022 36.2998 177.249 40.316 172.946C43.9596 169.042 51.7442 167.309 47.983 158.997C46.6173 155.979 45.1672 155.012 42.4125 156.971C38.0485 160.075 33.4071 162.835 29.302 166.244C25.3914 169.492 20.7942 172.811 18.7496 177.157C16.6858 181.545 17.351 187.23 16.9336 192.355C16.8909 192.88 17.6906 193.971 17.9815 193.931C18.8587 193.812 19.8966 193.47 20.4804 192.848C22.6965 190.485 24.7584 187.978 27.378 185.026M279.878 72.5256C282.107 68.2967 284.544 64.1575 286.429 59.7806C286.946 58.5799 286.329 55.82 285.349 55.2222C279.69 51.768 273.806 48.6711 267.912 45.6177C265.621 44.4309 263.57 44.0949 263.822 48.0188C264.076 51.9911 263.661 56.0095 263.972 59.9738C264.122 61.8901 264.861 64.0489 266.042 65.5328C268.203 68.2455 270.755 70.6973 273.405 72.9515C275.248 74.52 277.444 76.6225 279.878 72.5256M793.878 353.526C792.704 355.033 790.995 356.382 790.493 358.087C789.873 360.189 789.316 363.476 790.426 364.651C792.158 366.483 795.532 368.202 797.826 367.796C804.949 366.535 811.292 363.285 814.882 356.459C816.304 353.754 817.301 350.82 818.415 347.961C818.8 346.973 818.951 345.894 819.209 344.857C817.995 344.58 816.556 343.737 815.602 344.116C808.474 346.95 801.441 350.026 793.878 353.526M1621.38 197.026C1616.56 205.18 1611.64 213.278 1606.94 221.506C1602.34 229.567 1597.93 237.735 1593.58 245.931C1593.12 246.797 1593.61 248.168 1593.66 249.304C1594.48 248.961 1595.52 248.83 1596.1 248.244C1605.03 239.125 1613.56 229.718 1618.02 217.402C1620.22 211.328 1622.7 205.353 1624.77 199.236C1625.13 198.169 1624.05 196.618 1623.64 195.291C1623.05 195.702 1622.47 196.114 1621.38 197.026M1297.88 356.526C1299.54 354.579 1301.72 352.864 1302.74 350.623C1303.8 348.284 1303.74 345.438 1304.17 342.814C1301.89 343.218 1299.61 343.628 1297.32 344.018C1297 344.073 1296.59 343.903 1296.34 344.044C1290.36 347.33 1284.21 350.348 1278.59 354.159C1277.14 355.139 1276.22 359.539 1277.15 360.76C1278.56 362.593 1282.25 364.376 1284.2 363.753C1288.83 362.265 1293.01 359.359 1297.88 356.526M237.378 34.0255C236.264 33.9115 235.127 33.9024 234.039 33.6663C227.044 32.1471 220.072 30.5134 213.055 29.1016C212.102 28.9099 210.942 29.7472 209.878 30.108C210.859 30.7472 211.778 31.5215 212.832 32.0003C216.041 33.4583 219.507 34.4615 222.503 36.2578C229.976 40.7379 237.227 45.5857 244.639 50.1707C245.058 50.4297 246.723 49.7515 246.789 49.3441C248.386 39.5057 246.885 37.07 237.378 34.0255M188.378 163.026C193.08 159.99 197.727 156.863 202.508 153.957C204.907 152.499 206.812 151.582 203.409 148.943C199.698 146.066 196.423 142.633 192.849 139.569C191.958 138.805 190.183 137.811 189.629 138.173C188.432 138.953 187.112 140.483 186.989 141.812C186.407 148.107 186.158 154.436 185.949 160.759C185.925 161.498 186.878 162.269 188.378 163.026M1995.38 390.025C1991.09 393.312 1986.55 396.322 1982.58 399.955C1977.27 404.811 1971.76 409.676 1969.54 416.933C1969.23 417.953 1969.61 419.187 1969.67 420.322C1970.93 420.223 1972.39 420.495 1973.41 419.949C1975.61 418.772 1978.05 417.548 1979.58 415.681C1985.51 408.42 1991.19 400.937 1996.79 393.41C1997.28 392.75 1996.54 391.176 1995.38 390.025M681.878 411.526C686.577 405.826 691.303 400.148 695.934 394.394C696.378 393.842 696.24 392.822 696.372 392.019C695.451 391.944 694.333 391.494 693.645 391.858C690.631 393.452 687.693 395.204 684.818 397.041C677.531 401.696 672.058 407.974 668.589 415.899C668.079 417.064 668.362 418.575 668.278 419.926C669.511 419.759 671.022 419.989 671.927 419.355C675.188 417.069 678.244 414.492 681.878 411.526M82.378 330.026C87.9532 329.026 93.5347 328.058 99.0974 326.992C99.9732 326.824 100.764 326.214 101.595 325.809C100.96 324.985 100.485 323.845 99.6483 323.423C98.7124 322.951 97.434 323.209 96.3289 323.013C89.8261 321.857 83.314 320.743 76.8393 319.444C73.8086 318.836 70.8648 317.803 67.8572 317.062C67.3044 316.926 66.6345 317.265 66.0186 317.385C66.2774 318.071 66.3456 318.959 66.8252 319.41C70.5148 322.88 74.2201 326.341 78.0869 329.608C78.7957 330.206 80.2616 329.909 82.378 330.026M231.378 370.026C236.803 368.692 242.268 367.496 247.637 365.965C250.146 365.25 252.47 363.887 254.878 362.818C252.498 361.887 250.188 360.579 247.72 360.115C244.105 359.435 239.748 357.98 236.823 359.309C230.503 362.182 224.881 366.597 219.022 370.454C218.643 370.704 218.388 371.946 218.581 372.102C219.1 372.524 219.972 372.922 220.565 372.773C223.859 371.949 227.111 370.959 231.378 370.026M59.378 197.026C62.3436 197.079 63.7462 196.314 61.9289 193.077C60.6643 190.825 59.8967 188.296 58.8732 185.905C57.5874 182.901 54.6619 182.069 52.3067 184.124C48.8819 187.111 45.5032 190.154 42.1935 193.268C41.4141 194.002 40.9891 195.112 40.401 196.049C41.591 196.374 42.7752 196.954 43.9718 196.981C48.7717 197.089 53.5756 197.026 59.378 197.026M24.878 146.526C25.2743 148.228 25.4276 149.884 27.752 147.755C30.199 145.513 33.2015 143.88 35.6611 141.65C38.3522 139.21 41.9613 137.071 39.9378 132.243C38.9276 129.833 38.5881 127.147 37.8587 124.611C37.52 123.434 36.9748 122.316 36.5231 121.171C35.6414 122.374 34.5163 123.467 33.9188 124.798C30.8309 131.674 27.878 138.61 24.878 146.526M301.878 280.526C305.62 281.934 309.329 283.444 313.125 284.688C314.224 285.049 315.572 284.649 316.806 284.597C316.737 283.814 316.894 282.915 316.561 282.267C315.076 279.379 313.549 276.503 311.847 273.741C310.487 271.534 308.596 269.8 305.875 271.606C303.742 273.021 301.832 274.795 299.932 276.529C299.234 277.166 298.849 278.146 298.322 278.969C299.34 279.321 300.359 279.673 301.878 280.526Z" fill="#ffffff" fill-rule="nonzero" opacity="1" stroke="none"/>
<path d="M707.878 160.026C709.211 146.583 710.559 133.641 711.869 120.696C712.259 116.841 712.597 112.979 712.865 109.114C713.248 103.591 713.69 98.0659 713.839 92.5344C714.004 86.41 710.608 82.362 704.586 81.0263C703.059 80.6877 701.279 80.7292 700.077 79.9147C699.011 79.1922 698.081 77.5284 698.07 76.2712C698.063 75.5317 699.976 74.1196 701.006 74.1372C705.87 74.2202 710.73 74.9805 715.588 74.9532C721.782 74.9183 727.972 74.3127 734.168 74.036C744.413 73.5783 743.104 74.3057 746.794 83.0655C753.425 98.81 759.561 114.764 765.865 130.645C767.286 134.224 768.492 137.887 769.914 141.465C770.288 142.407 771.099 143.177 771.709 144.026C772.363 143.261 773.302 142.602 773.63 141.716C781.456 120.631 789.166 99.5022 797.05 78.4386C798.07 75.7131 799.813 73.5851 803.589 73.9387C810.42 74.5786 817.299 74.9222 824.159 74.953C829.684 74.9778 835.212 74.165 840.739 74.162C842.118 74.1613 843.498 75.8504 844.878 76.7629C843.673 77.8505 842.631 79.2812 841.226 79.9446C839.151 80.9245 836.504 80.895 834.67 82.1367C832.067 83.8996 829.605 85.8202 829.758 89.9453C830.128 99.9281 829.629 109.941 829.938 119.928C830.364 133.655 831.067 147.377 831.93 161.084C832.479 169.8 836.701 173.632 845.804 175.15C847.303 175.4 848.527 177.298 849.878 178.434C848.45 179.298 847.028 180.9 845.592 180.914C827.433 181.084 809.272 181.084 791.113 180.911C789.693 180.898 788.289 179.264 786.878 178.383C788.051 177.264 789.035 175.582 790.427 175.115C801.315 171.456 802.27 169.922 801.925 160.705C801.411 147.021 801.149 133.327 800.902 119.635C800.766 112.083 800.949 104.525 800.792 96.974C800.772 95.9789 799.591 95.0078 798.947 94.0255C798.258 94.7949 797.25 95.45 796.926 96.3509C793.011 107.229 789.397 118.219 785.309 129.03C778.993 145.734 772.46 162.358 765.763 178.913C764.943 180.941 762.645 183.565 760.873 183.692C758.973 183.828 755.942 181.792 755.042 179.918C751.317 172.157 748.14 164.127 744.893 156.143C738.863 141.313 732.878 126.465 726.983 111.581C725.678 108.285 724.938 104.768 723.699 101.441C723.34 100.478 722.153 99.8222 721.345 99.0255C720.856 99.9669 719.978 100.892 719.938 101.852C719.508 112.04 719.349 122.24 718.838 132.422C718.358 141.986 717.449 151.526 716.904 161.087C716.314 171.417 720.869 172.578 728.245 175.004C728.99 175.249 730.017 174.932 730.594 175.334C731.802 176.177 732.796 177.325 733.878 178.347C732.45 179.24 731.034 180.883 729.592 180.908C717.433 181.115 705.268 181.093 693.108 180.91C692.019 180.894 690.954 179.26 689.878 178.377C690.886 177.26 691.687 175.683 692.944 175.116C696.164 173.662 699.848 173.11 702.863 171.363C706.798 169.084 707.295 164.658 707.878 160.026Z" fill="#ffffff" fill-rule="nonzero" opacity="1" stroke="none"/>
<path d="M1114.63 180.776C1102.39 181.026 1090.39 180.83 1078.41 181.137C1074.49 181.237 1072.38 179.692 1070.88 176.51C1066.21 166.62 1061.76 156.619 1056.8 146.878C1053.85 141.096 1051.05 134.623 1043.2 133.966C1041.82 133.851 1039.07 135.148 1039.07 135.81C1038.98 146.226 1038.92 156.664 1039.54 167.054C1039.88 172.616 1045.1 173.502 1049.39 175.137C1051.13 175.8 1052.4 177.702 1053.88 179.04C1052.25 179.702 1050.62 180.926 1048.99 180.939C1031.84 181.079 1014.68 181.035 997.529 181.013C995.503 181.01 993.047 181.697 992.856 178.304C992.677 175.144 994.708 175.414 996.952 174.924C1006.03 172.944 1008.88 169.053 1008.88 159.553C1008.88 138.736 1009.01 117.917 1008.83 97.1016C1008.71 83.9188 1006.03 82.9881 996.911 80.3888C995.313 79.9333 994.21 77.7426 992.878 76.3532C994.56 75.5773 996.247 74.1293 997.923 74.1426C1004.95 74.1986 1011.97 75.0075 1018.99 74.957C1031.85 74.8644 1044.7 74.0324 1057.55 74.1383C1066.37 74.211 1075.2 75.555 1083.01 80.0768C1092.88 85.7838 1098.07 93.9641 1097.02 106C1096.2 115.48 1090.89 120.984 1083.19 125C1076.64 128.412 1076.23 128.52 1079.96 134.955C1086.74 146.678 1093.61 158.399 1101.31 169.518C1103.36 172.478 1108.55 173.285 1112.34 175.013C1114.81 176.145 1117.41 177.129 1114.63 180.776M1064.88 94.5255C1063.88 86.1823 1056.98 80.0441 1046.98 80.955C1042.27 81.3842 1038.95 83.9118 1038.91 88.5086C1038.81 99.803 1038.79 111.1 1038.98 122.392C1039.01 123.906 1040.08 126.061 1041.32 126.772C1045.37 129.096 1059.17 125.02 1061.88 121.069C1067.42 112.974 1066.07 103.956 1064.88 94.5255Z" fill="#ffffff" fill-rule="nonzero" opacity="1" stroke="none"/>
<path d="M1271.88 82.0255C1265.93 83.5331 1263.86 87.4 1263.87 92.7431C1263.89 101.407 1263.96 110.073 1263.84 118.735C1263.79 122.464 1265.26 124.225 1269.05 124.037C1278.51 123.571 1285.45 118.988 1287.98 109.237C1288.3 107.983 1290.01 107.087 1291.07 106.026C1292.01 107.382 1293.73 108.723 1293.75 110.097C1293.97 121.59 1293.97 133.09 1293.77 144.583C1293.74 146.077 1292.25 147.545 1291.44 149.026C1290.25 147.726 1288.44 146.61 1287.99 145.092C1286.56 140.215 1285.24 135.108 1280.18 133.022C1276.19 131.378 1271.72 130.658 1267.4 130.258C1266.36 130.163 1264.08 132.94 1264.04 134.449C1263.73 144.103 1263.76 153.774 1263.92 163.435C1264.04 170.217 1268.19 173.851 1275 174.059C1286.27 174.404 1296.9 172.419 1304.57 163.562C1308.46 159.06 1311.23 153.406 1313.71 147.914C1314.92 145.222 1316.18 143.309 1318.79 144.257C1319.95 144.679 1320.9 147.663 1320.76 149.39C1320 158.825 1318.99 168.247 1317.74 177.63C1317.57 178.889 1315.55 180.876 1314.38 180.883C1283.39 181.063 1252.4 181.051 1221.41 180.926C1220.23 180.922 1219.05 179.459 1217.88 178.675C1218.82 177.459 1219.53 175.887 1220.75 175.124C1222 174.345 1223.75 174.386 1225.27 174.021C1231.64 172.491 1233.98 167.971 1233.94 162.41C1233.79 140.085 1233.62 117.753 1234 95.4319C1234.16 85.7224 1231.62 83.2879 1222.36 80.1232C1220.48 79.481 1217.47 80.5154 1217.99 77.1827C1218.44 74.2514 1221.01 73.934 1223.7 73.9859C1244.72 74.3909 1265.74 74.819 1286.77 74.9619C1294.96 75.0176 1303.16 74.4672 1311.34 73.9738C1314.76 73.768 1315.94 74.824 1315.96 78.3695C1316.04 87.5642 1316.64 96.7541 1316.77 105.95C1316.79 107.298 1315.34 108.666 1314.58 110.026C1313.34 108.967 1311.47 108.143 1310.98 106.811C1307.87 98.3021 1304.9 89.5126 1296.26 85.0989C1288.86 81.318 1280.78 79.6259 1271.88 82.0255Z" fill="#ffffff" fill-rule="nonzero" opacity="1" stroke="none"/>
<path d="M947.628 123.276C950.545 130.748 953.013 138.052 955.932 145.171C959.025 152.715 961.929 160.461 966.144 167.369C968.232 170.79 973.058 172.56 976.698 174.998C977.442 175.496 978.569 175.45 979.266 175.985C980.568 176.986 981.684 178.229 982.878 179.371C981.305 179.923 979.734 180.944 978.157 180.954C960.338 181.067 942.518 181.035 924.698 181.013C922.506 181.01 919.839 181.746 919.848 177.972C919.856 174.574 922.185 175.147 924.304 175.004C931.576 174.512 934.628 169.465 931.943 163.859C930.488 160.821 930.175 157.172 928.441 154.355C927.248 152.417 924.564 150.34 922.438 150.219C914.138 149.745 905.795 149.974 897.469 150.085C896.317 150.101 894.488 150.625 894.141 151.422C891.874 156.641 889.245 161.856 888.092 167.356C887.152 171.844 891.111 174.92 896.29 175.009C898.644 175.049 901.109 174.655 900.899 178.312C900.704 181.708 898.242 181.007 896.219 181.012C885.56 181.041 874.901 181.102 864.245 180.936C862.779 180.914 861.333 179.686 859.878 179.016C861.034 177.686 862.014 175.434 863.375 175.172C873.848 173.161 877.753 164.66 881.67 156.577C887.035 145.505 891.698 134.092 896.595 122.796C903.388 107.125 910.196 91.4585 916.817 75.7139C918.225 72.365 920.472 72.0272 923.617 71.9091C927.021 71.7812 927.914 73.6449 928.915 76.213C935.007 91.8414 941.211 107.426 947.628 123.276M905.378 144.026C910.363 144.026 915.348 144.008 920.333 144.032C923.249 144.046 924.685 143.41 922.941 140.094C921.377 137.119 920.233 133.904 919.109 130.723C916.955 124.631 914.938 118.49 912.886 112.363C912.519 111.267 912.25 110.139 911.937 109.026C910.917 109.961 909.433 110.703 908.952 111.861C905.48 120.227 902.087 128.631 898.919 137.115C896.611 143.298 897.308 144.026 905.378 144.026Z" fill="#ffffff" fill-rule="nonzero" opacity="1" stroke="none"/>
<path d="M1421.63 135.276C1426.55 145.19 1426.93 155.316 1421.67 164.401C1415.42 175.205 1405.29 180.915 1392.69 183.21C1377.87 185.91 1364.69 180.226 1351.05 176.815C1349.29 176.376 1347.2 173.143 1347.07 171.089C1346.59 163.624 1346.75 156.107 1346.98 148.618C1347.03 147.067 1348.4 145.555 1349.16 144.026C1350.73 145.274 1353.37 146.291 1353.7 147.809C1355.69 156.948 1360.69 164.117 1367.51 170.076C1374.01 175.743 1381.28 177.874 1390.28 176.385C1401.64 174.504 1403.91 159.249 1398.16 153.148C1393.34 148.019 1387.02 144.277 1381.32 139.983C1373.46 134.062 1365.28 128.526 1357.73 122.233C1346.76 113.09 1348.29 98.9931 1354.58 89.0345C1361.78 77.6285 1372.67 72.3238 1386.32 71.8946C1396.11 71.5869 1405.4 73.2459 1414.66 75.9881C1417.7 76.8866 1419.02 78.3167 1418.99 81.7583C1418.94 88.2795 1419.66 94.8038 1419.79 101.332C1419.82 102.886 1418.76 104.461 1418.2 106.026C1416.72 104.826 1414.74 103.914 1413.87 102.375C1410.67 96.7384 1408.42 90.4969 1404.75 85.2126C1398.04 75.5308 1381.97 75.5185 1375.9 86.1176C1372.56 91.9636 1375.75 101.578 1382.43 106.01C1391.56 112.071 1400.94 117.777 1409.86 124.134C1414.12 127.171 1417.57 131.359 1421.63 135.276Z" fill="#ffffff" fill-rule="nonzero" opacity="1" stroke="none"/>
<path d="M1131.63 74.7755C1139.17 74.6922 1146.46 75.0279 1153.75 74.9705C1159.28 74.9269 1164.81 74.2363 1170.34 74.0994C1177.16 73.9306 1183.99 73.9546 1190.81 74.1491C1191.53 74.1694 1192.8 75.9596 1192.72 76.8288C1192.62 77.9472 1191.63 79.2942 1190.63 79.9376C1189.51 80.6546 1187.97 80.716 1186.6 81.0215C1179.65 82.573 1175.93 86.9468 1175.9 94.1033C1175.83 116.427 1175.81 138.752 1175.91 161.076C1175.95 169.464 1179.4 172.939 1188.28 175.15C1190.02 175.583 1191.36 177.623 1192.88 178.922C1191.29 179.623 1189.7 180.921 1188.1 180.934C1170.28 181.079 1152.45 181.079 1134.63 180.933C1133.04 180.92 1131.46 179.607 1129.88 178.898C1131.24 177.607 1132.4 175.629 1134 175.141C1142.24 172.641 1146.12 171.118 1145.97 160.137C1145.67 138.649 1145.57 117.149 1146.01 95.6667C1146.23 85.2928 1142.9 82.3891 1133.11 80.1061C1129.14 79.1795 1128.69 77.8407 1131.63 74.7755Z" fill="#ffffff" fill-rule="nonzero" opacity="1" stroke="none"/>
<path d="M1466.13 229.776C1471.37 235.284 1470.99 240.639 1465.3 245.101C1460.97 248.498 1455.24 247.317 1451.64 242.283C1448.81 238.346 1453.41 228.544 1458.54 228.143C1460.94 227.956 1463.43 229.026 1466.13 229.776Z" fill="#ffffff" fill-rule="nonzero" opacity="1" stroke="none"/>
<path d="M1150.13 243.776C1146.38 240.414 1147.41 236.675 1149.12 233.431C1151.36 229.203 1157.19 226.307 1160.62 228.256C1163.31 229.791 1166.06 233.171 1166.58 236.121C1167.31 240.245 1164.7 244.026 1160.65 245.985C1156.86 247.816 1153.26 247.515 1150.13 243.776Z" fill="#ffffff" fill-rule="nonzero" opacity="1" stroke="none"/>
<path d="M1844.63 242.776C1838.71 249.258 1832.51 247.632 1829.39 242.891C1828.35 241.305 1827.99 239.034 1827.96 237.067C1827.92 233.971 1832.88 228.421 1835.59 228.026C1840.54 227.303 1845.13 229.465 1846.23 234.127C1846.84 236.677 1845.4 239.71 1844.63 242.776Z" fill="#ffffff" fill-rule="nonzero" opacity="1" stroke="none"/>
</g>
</svg>
