<?xml version="1.0" encoding="UTF-8" standalone="no"?>
<!DOCTYPE svg PUBLIC "-//W3C//DTD SVG 1.1//EN" "http://www.w3.org/Graphics/SVG/1.1/DTD/svg11.dtd">
<!-- Created with Vectornator (http://vectornator.io/) -->
<svg height="100%" stroke-miterlimit="10" style="fill-rule:nonzero;clip-rule:evenodd;stroke-linecap:round;stroke-linejoin:round;" version="1.1" viewBox="0 0 1859.39 1311.56" width="100%" xml:space="preserve" xmlns="http://www.w3.org/2000/svg" xmlns:vectornator="http://vectornator.io" xmlns:xlink="http://www.w3.org/1999/xlink">
<defs/>
<clipPath id="ArtboardFrame">
<rect height="1311.56" width="1859.39" x="0" y="0"/>
</clipPath>
<g clip-path="url(#ArtboardFrame)" id="Untitled" vectornator:layerName="Untitled">
<path d="M1229.26 524.512C1265.64 689.664 1228.14 869.675 1128.83 1006.56C1029.53 1143.45 870.046 1234.96 701.757 1251.63C896.464 1270.09 1113.01 1232.89 1241.21 1085.18C1375.77 930.154 1376.22 701.481 1463.62 515.735C1357.23 477.095 1260.97 395.154 1231.65 285.828C1202.33 176.502 1257.85 43.4236 1365.65 8.92992C1428.67-11.2337 1500.14 4.0114 1554.34 41.9644C1608.54 79.9174 1646.21 138.581 1666.27 201.635C1706.52 179 1755.83 162.827 1798.28 181.03C1850.88 203.59 1870.57 273.042 1853.26 327.603C1835.96 382.164 1791.12 423.437 1744.02 455.957C1717.19 474.479 1686.15 495.438 1682.52 527.838C1674.04 603.402 1658.33 678.152 1635.67 750.733C1628.68 773.11 1606.64 800.476 1587.93 786.341C1576.56 777.74 1578.57 760.388 1581.74 746.481C1599.14 670.142 1616.53 593.804 1633.93 517.465C1595.42 518.64 1556.92 519.815 1518.42 520.99C1434.63 693.269 1430.63 900.031 1325.26 1060.02C1221.12 1218.14 1028.91 1304.56 839.687 1311.11C650.467 1317.66 464.581 1252.61 299.755 1159.45C90.2016 1041-30.9993 785.04 6.89343 547.329C44.7862 309.619 237.421 105.069 471.684 49.7249C705.946-5.61911 967.983 89.604 1114.76 280.389C1170.01 352.202 1209.76 436.028 1229.26 524.512M1040.93 282.041C1039.84 276.188 1035.76 271.399 1031.73 267.025C1013.61 247.398 993.17 229.915 970.974 215.055C892.502 378.187 753.52 509.355 590.702 588.477C427.885 667.6 242.463 695.944 62.1034 680.443C51.6852 694.172 55.8322 714.931 67.1411 727.936C78.45 740.941 95.1102 747.837 111.408 753.441C192.523 781.335 279.921 787.944 365.422 781.071C525.687 768.187 681.828 707.692 808.939 609.235C912.404 529.094 997.628 422.201 1038.59 297.902C1040.28 292.769 1041.91 287.355 1040.93 282.041M1284.55 278.445C1288.94 290.591 1294.67 302.217 1300.81 313.582C1319.29 347.785 1341.91 380.129 1370.74 406.214C1399.57 432.298 1434.92 451.935 1473.23 458.583C1478.86 459.56 1486.24 459.323 1488.3 453.992C1517.99 377.103 1561.21 305.458 1615.37 243.332C1617.09 241.356 1618.9 239.243 1619.32 236.655C1619.63 234.734 1619.13 232.785 1618.63 230.907C1604.35 178.104 1576.78 127.738 1534.36 93.1969C1489.36 56.5455 1424.93 40.1344 1371.48 62.759C1350.98 71.4392 1332.89 85.365 1318.14 102.05C1276.54 149.117 1263.16 219.381 1284.55 278.445M1123.93 445.059C1132.14 425.913 1128.86 403.394 1119.97 384.551C1111.09 365.709 1097.13 349.807 1083.35 334.18C1007.15 530.569 838.704 683.364 644.805 765.698C467.856 840.835 263.754 860.598 81.7868 798.593C80.4714 819.886 102.343 834.512 121.782 843.299C266.945 908.915 435.246 911.712 589.876 873.405C819.462 816.528 1030.72 662.447 1123.93 445.059M1179.41 562.578C1183.59 538.127 1163.01 514.826 1165.99 490.2C1070.92 669.346 910.824 813.068 722.497 888.323C534.171 963.579 319.113 969.77 126.769 905.473C131.613 930.332 158.397 943.562 182.266 952.029C336.675 1006.8 507.583 1017.56 665.799 975.012C874.861 918.793 1053.5 771.318 1168.1 587.646C1172.98 579.816 1177.86 571.675 1179.41 562.578M710.8 451.941C713.932 451.491 716.486 449.287 718.845 447.177C738.081 429.975 757.317 412.772 776.553 395.569C667.831 279.921 523.263 202.297 371.881 154.565C356.418 149.689 340.204 158.069 326.158 166.167C320.573 169.388 314.497 173.224 312.838 179.455C311.714 183.674 312.897 188.126 314.075 192.33C317.75 205.449 322.976 220.335 335.735 225.113C469.057 275.042 592.8 350.411 698.333 445.964C701.869 449.165 706.078 452.619 710.8 451.941M818.372 351.705C832.897 334.862 846.825 317.506 860.122 299.678C861.726 297.527 863.402 295.103 863.167 292.429C862.931 289.735 860.829 287.631 858.848 285.79C770.51 203.701 664.784 140.414 550.701 101.336C545.092 99.415 539.42 97.5412 533.54 96.778C523.481 95.4722 513.311 97.4679 503.404 99.6416C481.258 104.5 459.319 110.296 437.663 117.009C439.317 121.5 444.372 123.566 448.882 125.164C583.136 172.727 706.662 250.308 807.806 350.588C810.006 352.769 813.048 355.142 815.872 353.869C816.886 353.412 817.646 352.547 818.372 351.705M277.952 625.963C297.509 622.909 317.065 619.855 336.622 616.801C340.714 616.162 346.147 612.882 343.896 609.404C277.891 507.413 226.419 396.031 191.518 279.665C181.579 287.927 172.979 297.796 166.154 308.771C163.478 313.074 160.99 317.972 161.767 322.979C177.641 425.265 209.843 524.999 256.781 617.254C257.998 619.646 259.277 622.099 261.331 623.826C265.749 627.539 272.251 626.854 277.952 625.963M394.474 590.038C398.351 595.899 404.445 602.533 411.09 600.247C428.102 594.393 445.114 588.539 462.125 582.685C379.583 473.167 313.941 350.936 268.229 221.638C266.668 217.222 263.457 211.817 258.913 212.953C257.45 213.319 256.258 214.348 255.126 215.345C250.48 219.436 245.834 223.528 241.188 227.619C238.969 229.574 236.665 231.649 235.658 234.429C234.413 237.861 235.384 241.657 236.376 245.17C270.893 367.353 324.432 484.142 394.474 590.038M1693.92 246.14C1686.84 249.605 1678.57 255.223 1679.82 263.008C1688.38 316.428 1690.83 370.828 1687.1 424.803C1686.88 427.949 1690.32 430.36 1693.47 430.267C1696.62 430.173 1699.43 428.357 1702.04 426.579C1747.01 395.861 1788.3 354.977 1803.44 302.655C1808.72 284.389 1810.22 263.316 1799.48 247.624C1788.59 231.713 1767.44 225.459 1748.25 227.29C1729.06 229.12 1711.24 237.669 1693.92 246.14M905.851 933.029C896.529 932.127 887.837 937.312 879.808 942.134C854.038 957.614 827.211 971.334 799.576 983.168C798.214 983.75 796.726 984.451 796.158 985.818C794.962 988.7 798.613 991.101 801.569 992.097C870.838 1015.42 942.405 1031.91 1014.9 1041.25C1023.43 1042.35 1030.7 1035.49 1036.55 1029.18C1046.08 1018.91 1055.61 1008.64 1065.14 998.361C1067.92 995.364 1070.9 991.229 1069.07 987.571C1067.73 984.877 1064.41 983.953 1061.47 983.294C1012.6 972.326 964.74 956.834 918.711 937.08C914.563 935.3 910.344 933.463 905.851 933.029M639.745 1035.8C638.81 1036.05 637.763 1036.39 637.352 1037.26C636.65 1038.76 638.323 1040.24 639.765 1041.05C717.685 1085.07 804.889 1112.55 893.964 1121.18C905.846 1122.33 918.694 1122.93 928.792 1116.56C943.03 1107.58 956.75 1097.78 969.861 1087.22C888.45 1076 808.61 1053.44 733.37 1020.38C729.092 1018.5 724.732 1016.56 720.08 1016.13C715.105 1015.67 710.156 1016.97 705.33 1018.26C683.469 1024.11 661.607 1029.95 639.745 1035.8M514.24 1052.16C477.345 1056.59 441.536 1067.3 405.942 1077.97C396.041 1080.94 386.14 1083.91 376.24 1086.88C356.997 1092.65 337.755 1098.42 318.513 1104.18C317.591 1104.46 316.591 1104.79 316.077 1105.61C314.894 1107.48 317.183 1109.59 319.141 1110.62C342.96 1123.21 366.779 1135.81 390.597 1148.4C399.996 1153.37 411.069 1158.44 420.817 1154.2C477.775 1129.4 534.734 1104.6 591.693 1079.8C587.061 1071.37 580.1 1064.25 571.789 1059.42C554.766 1049.53 533.787 1049.81 514.24 1052.16M517.905 561.823C521.486 562.082 524.942 560.617 528.233 559.182C536.974 555.372 547.205 549.288 546.66 539.769C544.255 497.816 547.18 455.56 555.342 414.338C556.158 410.217 557.015 405.872 555.675 401.89C553.897 396.604 548.759 393.316 543.974 390.451C532.724 383.717 521.474 376.982 510.225 370.248C504.78 378.391 503.871 388.645 503.123 398.412C500.71 429.945 498.296 461.478 495.882 493.012C494.291 513.795 493.225 536.557 505.484 553.415C508.521 557.593 512.754 561.45 517.905 561.823M1635.7 450.201C1637.44 402.498 1636.58 354.701 1633.12 307.091C1593.32 355.053 1561.76 409.844 1540.25 468.343C1568.34 469.107 1596.53 466.159 1623.86 459.6C1629.15 458.332 1635.51 455.633 1635.7 450.201M701.997 1129.99C690.985 1124.87 679.973 1119.75 668.961 1114.63C664.326 1112.47 659.482 1110.27 654.372 1110.39C649.894 1110.5 645.674 1112.38 641.595 1114.23C591.809 1136.82 542.023 1159.42 492.237 1182.01C507.488 1188.33 523.97 1190.98 540.275 1193.57C548.982 1194.96 557.777 1196.35 566.574 1195.77C581.481 1194.79 595.383 1188.25 608.842 1181.76C640.887 1166.33 672.931 1150.49 701.997 1129.99M433.081 445.815C436.621 451.572 440.551 457.611 446.707 460.398C446.071 424.219 450.097 387.961 458.653 352.802C459.299 350.15 459.972 347.38 459.348 344.723C458.287 340.211 453.907 337.402 449.875 335.115C418.266 317.187 385.204 301.821 351.12 289.217C374.789 343.222 402.196 395.587 433.081 445.815M1117.84 748.518C1117.46 751.044 1118.35 753.568 1119.22 755.968C1130.19 786.127 1141.16 816.286 1152.13 846.445C1176.4 786.702 1188.44 722.012 1187.26 657.535C1165.36 685.543 1143.46 713.551 1121.56 741.559C1119.92 743.657 1118.23 745.884 1117.84 748.518M1067.45 798.572C1059.58 806.4 1051.72 814.228 1043.85 822.055C1041.83 824.072 1039.68 826.328 1039.39 829.172C1039.17 831.417 1040.16 833.587 1041.12 835.627C1054.77 864.473 1068.42 893.319 1082.07 922.165C1084.12 926.499 1086.23 930.925 1089.62 934.321C1093 937.716 1097.97 939.94 1102.63 938.805C1107.76 937.555 1111.27 932.518 1112.3 927.337C1113.33 922.155 1112.36 916.807 1111.33 911.626C1103.78 873.709 1093.27 836.382 1079.93 800.098C1079.2 798.119 1078.31 795.962 1076.41 795.034C1073.32 793.52 1069.89 796.144 1067.45 798.572M158.797 521.892C156.891 516.513 154.986 511.135 153.081 505.756C151.882 502.374 149.801 498.347 146.215 498.453C144.525 498.502 143.04 499.528 141.667 500.515C120.999 515.366 100.331 530.217 79.6635 545.068C71.5236 550.917 62.894 557.421 59.8773 566.98C58.7654 570.503 58.503 574.229 58.2481 577.915C57.351 590.883 56.454 603.851 55.5569 616.819C55.4305 618.647 55.3354 620.611 56.2954 622.171C57.2553 623.732 59.7147 624.471 60.9342 623.104C89.5941 590.973 121.261 561.525 155.385 535.27C157.058 533.983 158.808 532.615 159.631 530.67C160.804 527.896 159.803 524.731 158.797 521.892M849.129 188.45C848.708 194.409 848.005 200.752 850.774 206.045C852.354 209.066 854.925 211.43 857.444 213.728C866.907 222.362 876.37 230.996 885.833 239.629C888.733 242.275 893.8 244.74 895.954 241.458C907.896 223.261 917.781 203.715 925.36 183.311C925.914 181.82 924.379 180.437 923.035 179.584C900.816 165.493 877.517 153.103 853.411 142.56C851.906 141.902 850.3 141.237 848.674 141.472C847.048 141.706 845.493 143.226 845.853 144.829C849.053 159.107 850.161 173.853 849.129 188.45M684.597 93.9879C680.014 93.3723 675.308 92.8094 670.805 93.8625C712.504 113.932 752.688 137.148 790.902 163.248C792.564 164.383 794.019 161.527 794.043 159.515C794.143 151.283 794.242 143.05 794.342 134.817C794.432 127.339 793.162 117.886 785.993 115.752C752.828 105.879 718.893 98.5948 684.597 93.9879M606.546 437.963C602.646 444.878 600.674 452.868 600.91 460.803C601.065 466.026 602.075 471.629 599.532 476.194C598.032 478.887 598.006 482.126 598.019 485.209C598.064 496.116 598.109 507.023 598.154 517.93C598.163 520.062 598.692 522.833 600.803 523.131C601.805 523.272 602.763 522.735 603.633 522.218C620.373 512.256 637.113 502.294 653.853 492.333C657.124 490.386 660.436 488.408 663.105 485.693C649.611 473.976 636.118 462.259 622.624 450.542C617.481 446.076 612.311 441.59 606.546 437.963M219.658 1029.81C230.835 1039.99 242.012 1050.17 253.189 1060.34C255.022 1062.01 257.309 1063.81 259.711 1063.2C276.871 1058.83 294.03 1054.47 311.19 1050.1C317.71 1048.44 324.444 1046.68 329.718 1042.5C314.898 1041.02 300.16 1038.72 285.592 1035.62C273.589 1033.06 261.709 1029.96 249.835 1026.86C236.601 1023.41 223.368 1019.95 210.135 1016.5C211.215 1021.95 215.549 1026.07 219.658 1029.81M763.036 1152.09C745.432 1165.65 726.976 1178.1 707.813 1189.34C705.136 1190.91 702.141 1192.91 701.833 1195.99C744.17 1190.97 785.872 1180.62 825.649 1165.28C806.582 1160.33 787.352 1156.03 768.127 1151.74C766.409 1151.35 764.431 1151.02 763.036 1152.09M162.159 596.938C151.198 606.292 140.187 615.697 130.829 626.654C129.535 628.17 128.339 630.661 129.907 631.891C130.562 632.405 131.465 632.428 132.298 632.428C154.408 632.427 176.518 632.426 198.629 632.425C199.864 632.425 201.304 632.323 201.998 631.301C202.479 630.593 202.431 629.66 202.296 628.816C201.855 626.054 200.7 623.464 199.557 620.911C195.412 611.66 191.267 602.409 187.122 593.157C185.483 589.499 183.076 585.287 179.071 585.102C176.34 584.976 173.973 586.855 171.894 588.63C168.649 591.399 165.404 594.169 162.159 596.938M82.6888 479.374C84.236 475.611 87.9375 473.271 91.3867 471.112C102.768 463.991 113.734 456.206 124.211 447.81C127.472 445.198 130.934 442.074 131.307 437.913C131.457 436.247 131.079 434.583 130.704 432.953C127.742 420.066 124.779 407.18 121.817 394.293C121.112 391.229 119.001 387.309 116.03 388.339C114.601 388.834 113.83 390.341 113.203 391.717C104.842 410.048 96.9802 428.607 89.6297 447.366C86.5471 455.233 83.5523 463.141 81.0387 471.207C80.1229 474.146 79.8083 478.289 82.6888 479.374M992.418 864.908C983.337 874.05 973.165 882.107 962.187 888.854C959.385 890.576 956.197 892.73 955.993 896.012C974.8 902.298 993.607 908.584 1012.41 914.87C1013.85 915.351 1015.39 915.836 1016.86 915.437C1018.32 915.037 1019.52 913.353 1018.85 911.996C1011.38 897.029 1003.91 882.061 996.448 867.094C995.645 865.483 993.687 863.631 992.418 864.908Z" fill="#ffffff" fill-rule="nonzero" opacity="1" stroke="none"/>
</g>
</svg>
